<svg width="249" height="63" viewBox="0 0 249 63" fill="none" xmlns="http://www.w3.org/2000/svg">
<rect width="63" height="63" fill="#23120B"/>
<rect x="5" y="6" width="52" height="52" fill="#21209C"/>
<line x1="20.5251" y1="42.5251" x2="41.7383" y2="21.3119" stroke="#FDB127" stroke-width="7"/>
<path d="M86.1162 47.56L103.746 18.75H81.2788V22.19H97.6725L79.9888 51H104.391V47.56H86.1162ZM132.402 18.75H128.155L119.448 32.1338L110.74 18.75H106.44L117.728 35.735V51H121.168V35.6813L132.402 18.75ZM139.828 47.56V18.75H136.388V51H151.814V47.56H139.828Z" fill="#21209C"/>
<path d="M173.73 11.44V32.295C171.688 30.3063 168.947 29.07 165.883 29.07C159.702 29.07 154.703 34.0688 154.703 40.25C154.703 46.4313 159.702 51.43 165.883 51.43C168.947 51.43 171.688 50.1938 173.73 48.205V51H177.063V11.44H173.73ZM165.883 48.0975C161.529 48.0975 158.035 44.6038 158.035 40.25C158.035 35.8963 161.529 32.4025 165.883 32.4025C170.183 32.4025 173.73 35.8963 173.73 40.25C173.73 44.6038 170.183 48.0975 165.883 48.0975ZM205.786 40.035C205.624 33.8538 200.733 29.07 194.606 29.07C188.424 29.07 183.426 34.0688 183.426 40.25C183.426 46.4313 188.424 51.43 194.606 51.43C199.712 51.43 203.958 48.0437 205.356 43.4213H201.808C200.626 46.2163 197.831 48.0975 194.606 48.0975C190.359 48.0975 186.973 44.8725 186.758 40.7338H205.732L205.786 40.035ZM194.606 32.4025C198.046 32.4025 200.948 34.6063 201.969 37.7237H187.188C188.263 34.6063 191.166 32.4025 194.606 32.4025ZM217.253 51.43C221.015 51.43 224.133 48.9038 224.133 45.195C224.133 41.325 220.908 39.82 218.113 38.6913C215.479 37.5625 214.135 36.9713 214.135 35.09C214.135 33.2625 215.372 32.4025 217.145 32.4025C218.543 32.4025 219.779 32.9938 220.37 34.1225L223.273 32.6175C222.467 30.6825 219.725 29.07 216.984 29.07C213.813 29.07 210.749 31.2738 210.749 35.1975C210.749 38.5838 213.007 40.3037 216.823 41.755C219.403 42.7763 220.8 43.475 220.8 45.195C220.8 47.0763 219.188 48.1513 217.253 48.1513C215.264 48.1513 213.329 47.0225 213.007 45.4638L209.782 46.7538C210.588 49.3337 213.813 51.43 217.253 51.43ZM248.549 51L237.638 39.0675L247.635 29.5H243.174L233.391 38.9062V11.44H230.059V51H233.391V39.0137L243.98 51H248.549Z" fill="black"/>
</svg>
